<svg height="512" viewBox="0 0 512 512" width="512" xmlns="http://www.w3.org/2000/svg"><g id="filled_outline" data-name="filled outline"><g fill="#cdccc8"><circle cx="440" cy="440" r="24"/><circle cx="168" cy="440" r="24"/><path d="m168 296h304.355a8 8 0 0 0 7.992-7.637l7.273-160a8 8 0 0 0 -7.992-8.363h-334.934l15.339 168.724a8 8 0 0 0 7.967 7.276z"/></g><path d="m120 372.581a27.415 27.415 0 0 1 1.489-8.913l17.38-50.564a24 24 0 0 1 22.988-17.104h190.143v12a20 20 0 0 1 -20 20h-164.728l-13.09 40h317.818a16 16 0 0 1 16 16 16 16 0 0 1 -16 16h-324.581a27.419 27.419 0 0 1 -27.419-27.419z" fill="#bbbab6"/><path d="m440 472a32 32 0 1 1 32-32 32.036 32.036 0 0 1 -32 32zm0-48a16 16 0 1 0 16 16 16.019 16.019 0 0 0 -16-16z" fill="#bbbab6"/><circle cx="64" cy="72" fill="#bbbab6" r="24"/><path d="m184 56h128a0 0 0 0 1 0 0v54a10 10 0 0 1 -10 10h-108a10 10 0 0 1 -10-10v-54a0 0 0 0 1 0 0z" fill="#ee9d0d" transform="matrix(-1 0 0 -1 496 176)"/><path d="m312 88h128a0 0 0 0 1 0 0v22a10 10 0 0 1 -10 10h-108a10 10 0 0 1 -10-10v-22a0 0 0 0 1 0 0z" fill="#d78e0c" transform="matrix(-1 0 0 -1 752 208)"/><path d="m232 56h32v32h-32z" fill="#ea2b2d" transform="matrix(-1 0 0 -1 496 144)"/><path d="m360 88h32v32h-32z" fill="#ea2b2d" transform="matrix(-1 0 0 -1 752 208)"/><path d="m440.676 440a15.324 15.324 0 0 0 15.324-15.324v-24.676h-48l19.536 32.56a15.325 15.325 0 0 0 13.14 7.44z" fill="#0a71cd"/><path d="m168 472a32 32 0 1 1 32-32 32.036 32.036 0 0 1 -32 32zm0-48a16 16 0 1 0 16 16 16.019 16.019 0 0 0 -16-16z" fill="#bbbab6"/><path d="m167.324 440a15.324 15.324 0 0 1 -15.324-15.324v-24.676h48l-19.536 32.56a15.325 15.325 0 0 1 -13.14 7.44z" fill="#0a71cd"/><path d="m472 360h-306.782l7.854-24h158.928a28.032 28.032 0 0 0 28-28v-4h112.355a15.972 15.972 0 0 0 15.984-15.273l7.273-160a16 16 0 0 0 -15.984-16.727h-31.628v-14a18.021 18.021 0 0 0 -18-18s-109.342.045-110 .118v-14.118a18.021 18.021 0 0 0 -18-18h-108a18.021 18.021 0 0 0 -18 18v46h-17.223l-4.936-29.618a21.933 21.933 0 0 0 -21.7-18.382h-45.517a24 24 0 1 0 0 16h45.517a5.983 5.983 0 0 1 5.918 5.013l6 36.018 15.191 167.069a31.78 31.78 0 0 0 -28 22.54l-17.331 50.422a35.417 35.417 0 0 0 30.081 46.77v11.007a32 32 0 1 0 51.319 4.513l9.211-15.352h198.94l9.21 15.35a32 32 0 1 0 51.32-4.511v-10.839h8a24 24 0 0 0 0-48zm-408-280a8 8 0 1 1 8-8 8.009 8.009 0 0 1 -8 8zm368 18v14h-32v-16h30a2 2 0 0 1 2 2zm-48-2v16h-16v-16zm-62 0h30v16h-32v-14a2 2 0 0 1 2-2zm-66-32v16h-16v-16zm-64 2a2 2 0 0 1 2-2h30v24a8 8 0 0 0 8 8h32a8 8 0 0 0 8-8v-24h30a2 2 0 0 1 2 2v46h-112zm287.628 62-7.273 160h-16.355v-24a8 8 0 0 0 -8-8h-24a8 8 0 0 0 0 16h16v16h-40v-24a8 8 0 0 0 -8-8h-24a8 8 0 0 0 0 16h16v16h-40v-24a8 8 0 0 0 -8-8h-24a8 8 0 0 0 0 16h16v16h-40v-24a8 8 0 0 0 -8-8h-24a8 8 0 0 0 0 16h16v16h-40v-24a8 8 0 0 0 -8-8h-24a8 8 0 0 0 0 16h16v16h-40.694l-14.545-160zm-311.628 328a16.011 16.011 0 0 1 -15.8-13.588 23.258 23.258 0 0 0 31.747-1.4 16.007 16.007 0 0 1 -15.947 14.988zm5.6-27.556a7.324 7.324 0 0 1 -13.6-3.768v-16.676h25.87zm266.4 27.556a16.007 16.007 0 0 1 -15.949-14.992 23.258 23.258 0 0 0 31.747 1.4 16.011 16.011 0 0 1 -15.798 13.592zm8-31.324a7.324 7.324 0 0 1 -13.6 3.768l-12.27-20.444h25.87zm24-32.676h-324.581a19.418 19.418 0 0 1 -18.364-25.731l17.38-50.565c.034-.1.067-.2.1-.3a15.9 15.9 0 0 1 15.321-11.404h182.144v4a12.013 12.013 0 0 1 -12 12h-164.728a8 8 0 0 0 -7.6 5.512l-13.091 40a8 8 0 0 0 7.6 10.488h317.819a8 8 0 0 1 0 16z"/><path d="m424 160h16v16a8 8 0 0 0 16 0v-24a8 8 0 0 0 -8-8h-24a8 8 0 0 0 0 16z"/><path d="m424 216h16v16a8 8 0 0 0 16 0v-24a8 8 0 0 0 -8-8h-24a8 8 0 0 0 0 16z"/><path d="m368 160h16v16a8 8 0 0 0 16 0v-24a8 8 0 0 0 -8-8h-24a8 8 0 0 0 0 16z"/><path d="m368 216h16v16a8 8 0 0 0 16 0v-24a8 8 0 0 0 -8-8h-24a8 8 0 0 0 0 16z"/><path d="m312 160h16v16a8 8 0 0 0 16 0v-24a8 8 0 0 0 -8-8h-24a8 8 0 0 0 0 16z"/><path d="m312 216h16v16a8 8 0 0 0 16 0v-24a8 8 0 0 0 -8-8h-24a8 8 0 0 0 0 16z"/><path d="m256 160h16v16a8 8 0 0 0 16 0v-24a8 8 0 0 0 -8-8h-24a8 8 0 0 0 0 16z"/><path d="m256 216h16v16a8 8 0 0 0 16 0v-24a8 8 0 0 0 -8-8h-24a8 8 0 0 0 0 16z"/><path d="m200 160h16v16a8 8 0 0 0 16 0v-24a8 8 0 0 0 -8-8h-24a8 8 0 0 0 0 16z"/><path d="m200 216h16v16a8 8 0 0 0 16 0v-24a8 8 0 0 0 -8-8h-24a8 8 0 0 0 0 16z"/><path d="m128 160a8 8 0 0 0 -8-8h-96a8 8 0 0 0 0 16h96a8 8 0 0 0 8-8z"/><path d="m120 184h-8a8 8 0 0 0 0 16h8a8 8 0 0 0 0-16z"/><path d="m88 192a8 8 0 0 0 -8-8h-40a8 8 0 0 0 0 16h40a8 8 0 0 0 8-8z"/><path d="m128 224a8 8 0 0 0 -8-8h-64a8 8 0 0 0 0 16h64a8 8 0 0 0 8-8z"/><path d="m128 256a8 8 0 0 0 -8-8h-48a8 8 0 0 0 0 16h48a8 8 0 0 0 8-8z"/></g></svg>